<svg xmlns="http://www.w3.org/2000/svg" width="100" height="100" viewBox="0 0 100 100" fill="none" role="img" aria-label="ECUBOX">
  <svg x="6" y="6" width="88" height="88" viewBox="106 92 483 248" preserveAspectRatio="xMidYMid meet" fill="none"><path d="M562.145,206.469c-16.004,1.219 -17.758,2.426 -18.725,-1.751c-1.336,-5.772 -1.766,-32.046 -33.172,-54.286c-14.291,-10.12 -31.181,-11.586 -34.055,-11.835c-47.702,-4.14 -67.542,27.309 -78.392,40.975c-0.154,0.195 -12.28,16.288 -15.575,20.364c-1.228,1.518 -1.121,1.597 -14.985,19.263c-7.926,10.099 -7.752,10.207 -15.672,20.287c-7.92,10.081 -7.676,10.222 -15.667,20.293c-14.263,17.975 -34.824,47.332 -47.285,56.004c-2.73,1.9 -43.359,36.174 -101.81,17.609c-24.025,-7.631 -51.266,-27.217 -66.517,-58.589c-2.576,-5.299 -13.155,-25.917 -13.573,-55.995c-0.343,-24.683 7.486,-44.581 8.922,-48.233c13.077,-33.237 40.164,-54.756 55.649,-62.832c2.233,-1.164 44.786,-27.233 102.963,-7.045c9.947,3.452 26.158,12.568 35.983,21.427c6.547,5.903 14.9,15.547 17.569,18.368c4.127,4.361 2.031,5.391 -2.625,10.191c-10.774,11.109 -10.802,11.049 -21.732,22.016c-6.643,6.665 -6.637,6.639 -13.104,13.471c-22.7,23.983 -22.676,23.965 -44.514,47.766c-5.793,6.314 -6.506,6.848 -8.849,5.185c-1.082,-0.768 -0.739,-1.107 -11.513,-11.943c-14.206,-14.288 -14.868,-14.864 -14.981,-16.208c-0.227,-2.708 0.877,-2.402 21.307,-23.92c6.471,-6.815 32.147,-34.454 33.026,-35.692c2.312,-3.258 -1.342,-4.697 -3.048,-5.592c-16.272,-8.53 -34.29,-7.461 -37.327,-7.281c-43.034,2.553 -78.649,42.735 -71.601,91.212c2.409,16.572 11.5,35.513 23.719,46.328c19.191,16.985 61.618,34.274 96.576,-8.61c1.407,-1.726 0.999,-2.041 17.148,-21.92c3.675,-4.524 23.519,-30.379 26.699,-34.29c10.86,-13.359 56.293,-73.818 63.773,-81.547c1.358,-1.403 7.684,-7.939 18.881,-15.473c10.548,-7.097 29.244,-19.514 65.587,-21.323c6.706,-0.334 23.082,0.58 37.368,4.499c19.011,5.215 42.769,18.178 58.69,38.006c4.213,5.246 5.137,5.807 10.937,15.799c12.468,21.478 14.377,37.536 15.67,47.214c0.602,4.502 0.622,5.787 -3.888,6.25c-7.415,0.762 -20.107,1.709 -21.857,1.84Z" fill="#F2F3F5"/><path d="M479.306,339.495c-2.512,0.14 -11.527,1.102 -25.04,-0.332c-33.695,-3.576 -54.376,-19.734 -58.324,-22.819c-15.811,-12.353 -22.266,-21.159 -31.04,-33.277c-3.798,-5.245 -1.076,-5.945 6.452,-12.754c11.542,-10.439 22.695,-20.089 23.401,-20.437c4.08,-2.009 4.96,2.747 8.241,7.806c12.111,18.674 24.12,31.113 51.361,37.258c21.354,4.818 68.73,-0.538 85.737,-49.619c1.8,-5.195 1.07,-7.602 6.474,-6.633c1.871,0.335 37.488,7.693 38.734,8.638c1.296,0.983 2.721,2.065 -4.869,19.741c-21.037,48.992 -61.511,63.141 -73.134,67.06c-11.612,3.915 -25.722,5.166 -27.994,5.367Z" fill="#F2F3F5"/></svg>
</svg>
