<svg xmlns="http://www.w3.org/2000/svg" width="227.1" height="50.144" viewBox="-1.152 -44.104 227.1 50.144" fill="none" role="img" aria-label="ECUBOX">
  <path d="M3.848 0.0V-37.96H13.208V0.0ZM12.168 0.0V-7.904H28.183999999999997V0.0ZM12.168 -15.34V-23.244H27.092V-15.34ZM12.168 -30.055999999999997V-37.96H27.872V-30.055999999999997Z M50.284 1.04Q45.135999999999996 1.04 41.444 -0.754Q37.752 -2.548 35.36 -5.486Q32.968 -8.424 31.824 -11.855999999999998Q30.68 -15.287999999999998 30.68 -18.512V-19.656Q30.68 -23.244 31.85 -26.701999999999998Q33.02 -30.16 35.438 -32.967999999999996Q37.856 -35.775999999999996 41.495999999999995 -37.44Q45.135999999999996 -39.104 50.024 -39.104Q55.224000000000004 -39.104 59.254000000000005 -37.153999999999996Q63.284 -35.204 65.728 -31.694Q68.172 -28.183999999999997 68.588 -23.555999999999997H58.916Q58.552 -25.532 57.355999999999995 -26.988Q56.16 -28.444 54.288 -29.25Q52.416 -30.055999999999997 50.024 -30.055999999999997Q47.788 -30.055999999999997 45.994 -29.275999999999996Q44.2 -28.496 42.978 -27.066Q41.756 -25.636 41.106 -23.607999999999997Q40.456 -21.58 40.456 -19.032Q40.456 -16.483999999999998 41.106 -14.456Q41.756 -12.427999999999999 43.03 -10.972Q44.304 -9.516 46.124 -8.762Q47.944 -8.008 50.284 -8.008Q53.924 -8.008 56.446 -9.776Q58.968 -11.543999999999999 59.488 -14.508H69.16Q68.69200000000001 -10.244 66.30000000000001 -6.708Q63.908 -3.1719999999999997 59.852000000000004 -1.0659999999999998Q55.796 1.04 50.284 1.04Z M88.4 1.04Q82.94 1.04 79.17 -0.988Q75.4 -3.016 73.424 -6.734Q71.44800000000001 -10.452 71.44800000000001 -15.548V-37.96H81.12V-15.34Q81.12 -13.104 81.97800000000001 -11.44Q82.836 -9.776 84.44800000000001 -8.892Q86.06 -8.008 88.4 -8.008Q90.74000000000001 -8.008 92.352 -8.892Q93.964 -9.776 94.79599999999999 -11.414Q95.628 -13.052 95.628 -15.34V-37.96H105.30000000000001V-15.548Q105.30000000000001 -10.452 103.35000000000001 -6.734Q101.4 -3.016 97.63 -0.988Q93.86 1.04 88.4 1.04Z" fill="#F6F5FB"/>
  <path d="M118.50800000000001 0.312V-7.072H126.88Q129.012 -7.072 130.05200000000002 -8.164Q131.092 -9.256 131.092 -11.336Q131.092 -13.415999999999999 130.05200000000002 -14.482Q129.012 -15.548 126.88 -15.548H118.50800000000001V-21.268H126.568Q130.572 -21.268 133.744 -20.305999999999997Q136.916 -19.343999999999998 138.736 -17.159999999999997Q140.556 -14.975999999999999 140.556 -11.336V-10.607999999999999Q140.556 -7.175999999999999 138.94400000000002 -4.731999999999999Q137.332 -2.288 134.212 -0.9879999999999999Q131.092 0.312 126.568 0.312ZM110.188 0.312V-38.272H119.548V0.312ZM118.50800000000001 -17.003999999999998V-22.724H125.476Q127.608 -22.724 128.57 -23.79Q129.532 -24.855999999999998 129.532 -26.779999999999998Q129.532 -28.756 128.57 -29.822Q127.608 -30.887999999999998 125.476 -30.887999999999998H118.50800000000001V-38.272H125.06Q131.716 -38.272 135.356 -35.489999999999995Q138.996 -32.708 138.996 -27.56V-26.779999999999998Q138.996 -23.192 137.15 -21.034Q135.304 -18.875999999999998 132.15800000000002 -17.939999999999998Q129.012 -17.003999999999998 125.06 -17.003999999999998Z M162.916 1.04Q157.716 1.04 153.868 -0.754Q150.02 -2.548 147.472 -5.486Q144.924 -8.424 143.676 -11.855999999999998Q142.428 -15.287999999999998 142.428 -18.512V-19.656Q142.428 -23.244 143.728 -26.701999999999998Q145.028 -30.16 147.628 -32.967999999999996Q150.228 -35.775999999999996 154.05 -37.44Q157.87199999999999 -39.104 162.916 -39.104Q167.908 -39.104 171.73 -37.44Q175.552 -35.775999999999996 178.152 -32.967999999999996Q180.752 -30.16 182.078 -26.701999999999998Q183.404 -23.244 183.404 -19.656V-18.512Q183.404 -15.287999999999998 182.13 -11.855999999999998Q180.856 -8.424 178.308 -5.486Q175.76 -2.548 171.91199999999998 -0.754Q168.064 1.04 162.916 1.04ZM162.916 -8.008Q165.412 -8.008 167.388 -8.84Q169.364 -9.671999999999999 170.768 -11.18Q172.172 -12.687999999999999 172.89999999999998 -14.69Q173.628 -16.692 173.628 -19.032Q173.628 -21.528 172.874 -23.555999999999997Q172.12 -25.584 170.716 -27.04Q169.312 -28.496 167.336 -29.275999999999996Q165.35999999999999 -30.055999999999997 162.916 -30.055999999999997Q160.42 -30.055999999999997 158.444 -29.275999999999996Q156.468 -28.496 155.064 -27.04Q153.66 -25.584 152.93200000000002 -23.555999999999997Q152.204 -21.528 152.204 -19.032Q152.204 -16.692 152.93200000000002 -14.69Q153.66 -12.687999999999999 155.064 -11.18Q156.468 -9.671999999999999 158.444 -8.84Q160.42 -8.008 162.916 -8.008Z M183.61200000000002 0.0 196.196 -20.176 196.3 -19.343999999999998 184.65200000000002 -37.96H195.26000000000002L201.76000000000002 -26.988H203.11200000000002L209.404 -37.96H219.70000000000002L208.104 -19.24L207.948 -20.072L220.948 0.0H210.34L202.592 -12.532H201.24L193.90800000000002 0.0Z" fill="#8B6CFF"/>
</svg>
