<svg xmlns="http://www.w3.org/2000/svg" width="250" height="250" viewBox="0 0 250 250" fill="none" role="img" aria-label="ECUBOX">
  <defs>
    <linearGradient id="ecboxMonoLight" x1="15" y1="15" x2="235" y2="235" gradientUnits="userSpaceOnUse">
      <stop offset="0" stop-color="#8B6CFF" />
      <stop offset="1" stop-color="#3E27A8" />
    </linearGradient>
    <linearGradient id="ecboxMonoDark" x1="15" y1="15" x2="235" y2="235" gradientUnits="userSpaceOnUse">
      <stop offset="0" stop-color="#9B82FF" />
      <stop offset="1" stop-color="#5B3FD0" />
    </linearGradient>
  </defs>
  <style>
    .ecubox-tile { fill: url(#ecboxMonoLight); }
    @media (prefers-color-scheme: dark) {
      .ecubox-tile { fill: url(#ecboxMonoDark); }
    }
  </style>
  <rect class="ecubox-tile" x="15" y="15" width="220" height="220" rx="67" />
  <g transform="translate(125 134) scale(2.34375) translate(-32 -34)" fill="#FFFFFF">
    <path d="M41.6 21.8C38.4 19 34.2 17.6 29.8 17.6c-10.8 0-19.2 8.6-19.2 19.2s8.4 19.2 19.2 19.2c5.2 0 9.6-2.2 12.4-5.8l-7.4-5.2c-1.6 2.4-4.2 3.8-7.4 3.8-6 0-10.8-4.8-10.8-10.8s4.8-10.8 10.8-10.8c2.8 0 5.2 1.1 6.8 2.9l7.6-6.1z"/>
  </g>
</svg>
